<mxfile host="app.diagrams.net" modified="2024-07-20T19:55:32.859Z" agent="Mozilla/5.0 (Windows NT 10.0; Win64; x64) AppleWebKit/537.36 (KHTML, like Gecko) Chrome/126.0.0.0 Safari/537.36 Edg/126.0.0.0" version="24.7.2" etag="Ge-zfagD3zoKbyW3t4Mq" type="github">
  <diagram name="Page-1" id="4uLFlvcX-8-Me5IZYOLB">
    <mxGraphModel>
      <root>
        <mxCell id="0" />
        <mxCell id="1" parent="0" />
      </root>
    </mxGraphModel>
  </diagram>
</mxfile>
